HIERARCHY
ROOT Hips
{
	OFFSET 0.000000 0.000000 0.000000
	CHANNELS 6 Xposition Yposition Zposition Xrotation Yrotation Zrotation
	JOINT LeftUpLeg_virtual
	{
		OFFSET 0.000000 0.000000 0.000000
		CHANNELS 3 Xrotation Yrotation Zrotation
		JOINT LeftUpLeg
		{
			OFFSET 13.026900 -6.336304 -1.092800
			CHANNELS 3 Xrotation Yrotation Zrotation
			JOINT LeftLeg
			{
				OFFSET 0.524474 -46.096886 9.782700
				CHANNELS 3 Xrotation Yrotation Zrotation
				JOINT LeftFoot
				{
					OFFSET -0.524474 -53.427422 -12.948200
					CHANNELS 3 Xrotation Yrotation Zrotation
					JOINT LeftToeBase
					{
						OFFSET 0.192200 -14.009700 16.364100
						CHANNELS 3 Xrotation Yrotation Zrotation
						JOINT LeftToe_End
						{
							OFFSET -1.784700 -0.561700 9.474800
							CHANNELS 3 Xrotation Yrotation Zrotation
							End Site
							{
								OFFSET 0 0 0
							}
						}
					}
				}
			}
		}
	}
	JOINT RightUpLeg_virtual
	{
		OFFSET 0.000000 0.000000 0.000000
		CHANNELS 3 Xrotation Yrotation Zrotation
		JOINT RightUpLeg
		{
			OFFSET -12.883000 -6.336304 -1.092800
			CHANNELS 3 Xrotation Yrotation Zrotation
			JOINT RightLeg
			{
				OFFSET -0.524587 -46.096825 9.782800
				CHANNELS 3 Xrotation Yrotation Zrotation
				JOINT RightFoot
				{
					OFFSET 0.524587 -53.427383 -12.948300
					CHANNELS 3 Xrotation Yrotation Zrotation
					JOINT RightToeBase
					{
						OFFSET -0.192200 -14.009700 16.364100
						CHANNELS 3 Xrotation Yrotation Zrotation
						JOINT RightToe_End
						{
							OFFSET 1.784700 -0.561700 9.474800
							CHANNELS 3 Xrotation Yrotation Zrotation
							End Site
							{
								OFFSET 0 0 0
							}
						}
					}
				}
			}
		}
	}
	JOINT Spine_virtual
	{
		OFFSET 0.000000 0.000000 0.000000
		CHANNELS 3 Xrotation Yrotation Zrotation
		JOINT Spine
		{
			OFFSET 0.072000 7.257294 -0.789700
			CHANNELS 3 Xrotation Yrotation Zrotation
			JOINT Spine1
			{
				OFFSET 0.000000 12.508769 -0.658067
				CHANNELS 3 Xrotation Yrotation Zrotation
				JOINT Spine1_split
				{
					OFFSET 0.000000 12.508769 -0.658067
					CHANNELS 3 Xrotation Yrotation Zrotation
					JOINT Spine2
					{
						OFFSET 0.000000 12.508769 -0.658067
						CHANNELS 3 Xrotation Yrotation Zrotation
						JOINT Neck_virtual
						{
							OFFSET 0.000000 0.000000 0.000000
							CHANNELS 3 Xrotation Yrotation Zrotation
							JOINT Neck
							{
								OFFSET 0.000000 14.033295 7.520400
								CHANNELS 3 Xrotation Yrotation Zrotation
								JOINT Head
								{
									OFFSET 0.000000 8.198502 5.703100
									CHANNELS 3 Xrotation Yrotation Zrotation
									JOINT HeadTop_End
									{
										OFFSET 0.000000 17.760803 13.332701
										CHANNELS 3 Xrotation Yrotation Zrotation
										End Site
										{
											OFFSET 0 0 0
										}
									}
								}
							}
						}
						JOINT LeftShoulder_virtual
						{
							OFFSET 0.000000 0.000000 0.000000
							CHANNELS 3 Xrotation Yrotation Zrotation
							JOINT LeftShoulder
							{
								OFFSET 6.292450 5.785301 -0.669000
								CHANNELS 3 Xrotation Yrotation Zrotation
								JOINT LeftShoulder_split
								{
									OFFSET 6.292450 5.785301 -0.669000
									CHANNELS 3 Xrotation Yrotation Zrotation
									JOINT LeftArm
									{
										OFFSET 13.907140 -6.093903 1.965100
										CHANNELS 3 Xrotation Yrotation Zrotation
										JOINT LeftForeArm
										{
											OFFSET 34.140198 0.000000 0.000000
											CHANNELS 3 Xrotation Yrotation Zrotation
											JOINT LeftHand
											{
												OFFSET 40.960209 0.000000 0.000000
												CHANNELS 3 Xrotation Yrotation Zrotation
												End Site
												{
													OFFSET 0 0 0
												}
											}
										}
									}
								}
							}
						}
						JOINT RightShoulder_virtual
						{
							OFFSET 0.000000 0.000000 0.000000
							CHANNELS 3 Xrotation Yrotation Zrotation
							JOINT RightShoulder
							{
								OFFSET -6.292450 5.785301 -0.669000
								CHANNELS 3 Xrotation Yrotation Zrotation
								JOINT RightShoulder_split
								{
									OFFSET -6.292450 5.785301 -0.669000
									CHANNELS 3 Xrotation Yrotation Zrotation
									JOINT RightArm
									{
										OFFSET -13.907140 -6.093903 1.965100
										CHANNELS 3 Xrotation Yrotation Zrotation
										JOINT RightForeArm
										{
											OFFSET -34.140198 0.000000 0.000000
											CHANNELS 3 Xrotation Yrotation Zrotation
											JOINT RightHand
											{
												OFFSET -40.960209 0.000000 0.000000
												CHANNELS 3 Xrotation Yrotation Zrotation
												End Site
												{
													OFFSET 0 0 0
												}
											}
										}
									}
								}
							}
						}
					}
				}
			}
		}
	}
}
MOTION
Frames: 4
Frame Time: 0.03333333
1.566437 110.577370 8.329582 0.000000 0.000000 0.000000 -12.863361 -52.702911 -8.113203 -20.867947 0.880592 13.162020 24.764912 -8.718027 -0.033509 4.165882 -2.891275 -4.064896 -2.195257 -2.444220 -0.128355 0.000000 0.000000 0.000000 -7.683656 -49.704338 -5.871274 -3.549458 -7.676985 -15.437759 34.820386 5.733260 -4.011815 -11.682661 -9.653204 26.719681 -5.818084 -0.234542 0.469822 0.000000 0.000000 0.000000 -13.274381 -45.913758 -8.595499 5.542416 5.656199 -1.339373 10.796784 10.070284 -3.354904 1.097712 -2.157209 0.603484 0.000000 0.000000 0.000000 10.950052 9.531093 -4.145401 -6.930773 -3.879342 2.099862 -4.649464 22.344534 0.585014 0.000000 0.000000 0.000000 10.163094 9.310766 -3.174815 2.474993 1.554022 -3.125430 -5.416642 2.911368 -6.002758 -15.981985 -3.242973 -56.298452 2.144791 -53.303336 1.161020 0.000000 0.000000 0.000000 10.020711 9.872184 -2.892507 2.845320 8.740839 9.475295 -3.202039 4.011169 -0.841906 -1.935761 -29.543225 65.792221 -8.220034 50.050274 9.072778 0.000000 0.000000 0.000000 
2.277628 110.778702 6.572735 0.000000 0.000000 0.000000 -11.729887 -52.599782 -6.975164 -20.446800 1.110995 13.259900 23.712581 -9.395341 0.016544 2.638409 -3.521301 -2.894017 -1.564420 -2.244818 -0.592733 0.000000 0.000000 0.000000 -7.813164 -49.587532 -5.365427 -3.407260 -7.519227 -16.313461 33.988247 5.541552 -3.972747 -12.555763 -9.065239 23.935874 -3.197873 -0.466190 0.994459 0.000000 0.000000 0.000000 -12.520016 -46.041093 -8.108132 5.272127 5.525841 -1.144299 11.071954 10.082818 -3.341140 1.474482 -1.732078 0.382321 0.000000 0.000000 0.000000 11.134933 9.518300 -4.089749 -6.901116 -3.612329 2.122264 -4.427066 22.925323 0.473975 0.000000 0.000000 0.000000 10.707612 9.283116 -3.211947 2.510500 1.407201 -3.434601 -4.965745 2.893007 -5.821836 -14.202905 -2.068818 -57.340306 1.980091 -51.747774 1.207156 0.000000 0.000000 0.000000 10.598645 9.923259 -2.978803 2.815373 9.168387 10.189558 -3.871899 3.651375 -0.214186 -0.975687 -29.772135 65.798839 -7.978663 49.108780 8.975730 0.000000 0.000000 0.000000 
3.025453 110.620903 3.700539 0.000000 0.000000 0.000000 -10.295380 -51.702432 -5.763319 -20.666320 1.512429 14.149189 21.306722 -9.983918 -0.263201 2.067355 -4.042741 -4.055832 -0.876633 -1.981956 -0.807395 0.000000 0.000000 0.000000 -7.473588 -48.453225 -4.711238 -4.822976 -7.646356 -17.168662 35.021037 5.882116 -3.490468 -14.287011 -8.001599 19.316395 -1.404330 -0.547693 1.214361 0.000000 0.000000 0.000000 -11.373127 -45.106603 -7.293075 5.379663 5.136140 -1.118257 11.667587 9.991533 -3.326381 2.044219 -0.951496 0.331210 0.000000 0.000000 0.000000 11.637302 9.394328 -4.031739 -7.993153 -3.186337 2.263089 -4.225281 22.920877 0.266181 0.000000 0.000000 0.000000 11.502772 9.149984 -3.268967 2.468539 1.457491 -3.222343 -4.641010 2.108664 -4.500360 -13.202741 -0.778531 -59.813121 3.036967 -50.477946 2.600750 0.000000 0.000000 0.000000 11.518036 9.817436 -3.176487 2.920577 9.570351 11.036289 -4.494567 3.144021 0.150477 -1.193224 -27.709157 64.565519 -7.459585 48.551601 8.295486 0.000000 0.000000 0.000000 
3.636947 110.090973 -0.271374 0.000000 0.000000 0.000000 -8.561699 -50.294388 -4.644628 -22.124567 1.812888 15.482068 18.556342 -10.113439 -0.699632 3.332684 -4.286927 -6.888732 -0.377173 -1.685324 -0.842266 0.000000 0.000000 0.000000 -6.392356 -46.470879 -3.876187 -8.039279 -8.199465 -17.770467 38.029978 6.835687 -2.497020 -15.253035 -6.107480 14.042055 -2.211522 -0.628568 1.215075 0.000000 0.000000 0.000000 -9.535161 -43.361572 -6.131542 5.774301 4.500035 -1.225497 12.533769 9.744335 -3.305700 2.162076 -0.343875 0.704208 0.000000 0.000000 0.000000 12.497190 9.127336 -3.978249 -10.091365 -2.650313 2.545583 -4.213456 22.326066 0.066151 0.000000 0.000000 0.000000 12.562950 8.871697 -3.337585 2.386002 1.751303 -2.484310 -4.427466 1.006402 -2.630452 -14.085158 -0.061181 -62.845834 4.379905 -48.809604 4.504260 0.000000 0.000000 0.000000 12.710837 9.524558 -3.417743 3.135824 9.929305 11.635680 -4.989574 2.478260 0.134360 -2.971252 -23.812693 62.181223 -6.887562 49.067543 7.154790 0.000000 0.000000 0.000000 
